<mxfile host="app.diagrams.net" agent="Mozilla/5.0 (X11; Linux x86_64; rv:127.0) Gecko/20100101 Firefox/127.0" version="24.7.16">
  <diagram name="Page-1" id="e7e014a7-5840-1c2e-5031-d8a46d1fe8dd">
    <mxGraphModel dx="1434" dy="778" grid="1" gridSize="10" guides="1" tooltips="1" connect="1" arrows="1" fold="1" page="1" pageScale="1" pageWidth="1169" pageHeight="826" background="none" math="0" shadow="0">
      <root>
        <mxCell id="0" />
        <mxCell id="1" parent="0" />
        <mxCell id="2" value="Admin" style="swimlane;whiteSpace=wrap" parent="1" vertex="1">
          <mxGeometry x="164.5" y="20" width="280" height="760" as="geometry" />
        </mxCell>
        <mxCell id="z0TNYz0LtkRiTJH0bDVH-43" style="edgeStyle=orthogonalEdgeStyle;rounded=0;orthogonalLoop=1;jettySize=auto;html=1;entryX=0.5;entryY=0;entryDx=0;entryDy=0;" edge="1" parent="2" source="5" target="7">
          <mxGeometry relative="1" as="geometry">
            <mxPoint x="115" y="102" as="targetPoint" />
          </mxGeometry>
        </mxCell>
        <mxCell id="5" value="" style="ellipse;shape=startState;fillColor=#000000;strokeColor=#ff0000;" parent="2" vertex="1">
          <mxGeometry x="100" y="40" width="30" height="30" as="geometry" />
        </mxCell>
        <mxCell id="7" value="Home" style="verticalAlign=middle;" parent="2" vertex="1">
          <mxGeometry x="60" y="112" width="110" height="50" as="geometry" />
        </mxCell>
        <mxCell id="z0TNYz0LtkRiTJH0bDVH-61" style="edgeStyle=orthogonalEdgeStyle;rounded=0;orthogonalLoop=1;jettySize=auto;html=1;entryX=0.5;entryY=0;entryDx=0;entryDy=0;" edge="1" parent="2" source="z0TNYz0LtkRiTJH0bDVH-58" target="z0TNYz0LtkRiTJH0bDVH-60">
          <mxGeometry relative="1" as="geometry" />
        </mxCell>
        <mxCell id="z0TNYz0LtkRiTJH0bDVH-58" value="" style="rhombus;whiteSpace=wrap;html=1;" vertex="1" parent="2">
          <mxGeometry x="95" y="217" width="40" height="40" as="geometry" />
        </mxCell>
        <mxCell id="z0TNYz0LtkRiTJH0bDVH-60" value="Display Order" style="verticalAlign=middle;" vertex="1" parent="2">
          <mxGeometry x="60" y="302" width="110" height="50" as="geometry" />
        </mxCell>
        <mxCell id="z0TNYz0LtkRiTJH0bDVH-63" value="Success" style="text;html=1;align=center;verticalAlign=middle;resizable=0;points=[];autosize=1;strokeColor=none;fillColor=none;" vertex="1" parent="2">
          <mxGeometry x="115.5" y="262" width="70" height="30" as="geometry" />
        </mxCell>
        <mxCell id="z0TNYz0LtkRiTJH0bDVH-74" style="edgeStyle=orthogonalEdgeStyle;rounded=0;orthogonalLoop=1;jettySize=auto;html=1;entryX=0.5;entryY=1;entryDx=0;entryDy=0;" edge="1" parent="2" source="z0TNYz0LtkRiTJH0bDVH-72" target="z0TNYz0LtkRiTJH0bDVH-60">
          <mxGeometry relative="1" as="geometry" />
        </mxCell>
        <mxCell id="z0TNYz0LtkRiTJH0bDVH-76" style="edgeStyle=orthogonalEdgeStyle;rounded=0;orthogonalLoop=1;jettySize=auto;html=1;entryX=0.5;entryY=0;entryDx=0;entryDy=0;" edge="1" parent="2" source="z0TNYz0LtkRiTJH0bDVH-72" target="z0TNYz0LtkRiTJH0bDVH-75">
          <mxGeometry relative="1" as="geometry" />
        </mxCell>
        <mxCell id="z0TNYz0LtkRiTJH0bDVH-72" value="" style="rhombus;whiteSpace=wrap;html=1;" vertex="1" parent="2">
          <mxGeometry x="95" y="393" width="40" height="37" as="geometry" />
        </mxCell>
        <mxCell id="z0TNYz0LtkRiTJH0bDVH-75" value="Refund Successful" style="verticalAlign=middle;" vertex="1" parent="2">
          <mxGeometry x="60" y="470" width="110" height="50" as="geometry" />
        </mxCell>
        <mxCell id="z0TNYz0LtkRiTJH0bDVH-77" value="Success" style="text;html=1;align=center;verticalAlign=middle;resizable=0;points=[];autosize=1;strokeColor=none;fillColor=none;" vertex="1" parent="2">
          <mxGeometry x="115.5" y="430" width="70" height="30" as="geometry" />
        </mxCell>
        <mxCell id="z0TNYz0LtkRiTJH0bDVH-90" style="edgeStyle=orthogonalEdgeStyle;rounded=0;orthogonalLoop=1;jettySize=auto;html=1;entryX=0.5;entryY=0;entryDx=0;entryDy=0;" edge="1" parent="2" source="z0TNYz0LtkRiTJH0bDVH-87" target="z0TNYz0LtkRiTJH0bDVH-89">
          <mxGeometry relative="1" as="geometry" />
        </mxCell>
        <mxCell id="z0TNYz0LtkRiTJH0bDVH-87" value="" style="rhombus;whiteSpace=wrap;html=1;" vertex="1" parent="2">
          <mxGeometry x="95" y="550" width="40" height="37" as="geometry" />
        </mxCell>
        <mxCell id="z0TNYz0LtkRiTJH0bDVH-92" style="edgeStyle=orthogonalEdgeStyle;rounded=0;orthogonalLoop=1;jettySize=auto;html=1;entryX=0;entryY=0.5;entryDx=0;entryDy=0;exitX=0;exitY=0.5;exitDx=0;exitDy=0;" edge="1" parent="2" source="z0TNYz0LtkRiTJH0bDVH-87" target="z0TNYz0LtkRiTJH0bDVH-60">
          <mxGeometry relative="1" as="geometry" />
        </mxCell>
        <mxCell id="z0TNYz0LtkRiTJH0bDVH-89" value="Cancel Success" style="verticalAlign=middle;" vertex="1" parent="2">
          <mxGeometry x="60" y="620" width="110" height="50" as="geometry" />
        </mxCell>
        <mxCell id="z0TNYz0LtkRiTJH0bDVH-91" value="Success" style="text;html=1;align=center;verticalAlign=middle;resizable=0;points=[];autosize=1;strokeColor=none;fillColor=none;" vertex="1" parent="2">
          <mxGeometry x="55.5" y="587" width="70" height="30" as="geometry" />
        </mxCell>
        <mxCell id="3" value="Webapp" style="swimlane;whiteSpace=wrap" parent="1" vertex="1">
          <mxGeometry x="445" y="20" width="280" height="760" as="geometry" />
        </mxCell>
        <mxCell id="z0TNYz0LtkRiTJH0bDVH-53" style="edgeStyle=orthogonalEdgeStyle;rounded=0;orthogonalLoop=1;jettySize=auto;html=1;entryX=0.5;entryY=0;entryDx=0;entryDy=0;" edge="1" parent="3" source="15" target="z0TNYz0LtkRiTJH0bDVH-52">
          <mxGeometry relative="1" as="geometry" />
        </mxCell>
        <mxCell id="15" value="Manage Orders" style="" parent="3" vertex="1">
          <mxGeometry x="85" y="112" width="110" height="50" as="geometry" />
        </mxCell>
        <mxCell id="z0TNYz0LtkRiTJH0bDVH-52" value="Search Order" style="" vertex="1" parent="3">
          <mxGeometry x="85" y="212" width="110" height="50" as="geometry" />
        </mxCell>
        <mxCell id="z0TNYz0LtkRiTJH0bDVH-54" value="Order ID" style="text;html=1;align=center;verticalAlign=middle;resizable=0;points=[];autosize=1;strokeColor=none;fillColor=none;" vertex="1" parent="3">
          <mxGeometry x="5.5" y="172" width="70" height="30" as="geometry" />
        </mxCell>
        <mxCell id="z0TNYz0LtkRiTJH0bDVH-65" value="Issue Refund" style="" vertex="1" parent="3">
          <mxGeometry x="85" y="302" width="110" height="50" as="geometry" />
        </mxCell>
        <mxCell id="z0TNYz0LtkRiTJH0bDVH-78" value="Cancel Order" style="" vertex="1" parent="3">
          <mxGeometry x="85" y="470" width="110" height="50" as="geometry" />
        </mxCell>
        <mxCell id="4" value="Database" style="swimlane;whiteSpace=wrap" parent="1" vertex="1">
          <mxGeometry x="724.5" y="20" width="280" height="760" as="geometry" />
        </mxCell>
        <mxCell id="z0TNYz0LtkRiTJH0bDVH-44" value="Get Orders" style="" vertex="1" parent="4">
          <mxGeometry x="85" y="112" width="110" height="50" as="geometry" />
        </mxCell>
        <mxCell id="z0TNYz0LtkRiTJH0bDVH-55" value="&#xa;Get Order&#xa;By ID&#xa;" style="" vertex="1" parent="4">
          <mxGeometry x="85" y="212" width="110" height="50" as="geometry" />
        </mxCell>
        <mxCell id="z0TNYz0LtkRiTJH0bDVH-67" value="Get Payment" style="" vertex="1" parent="4">
          <mxGeometry x="85" y="302" width="110" height="50" as="geometry" />
        </mxCell>
        <mxCell id="z0TNYz0LtkRiTJH0bDVH-80" value="Update Inventory" style="" vertex="1" parent="4">
          <mxGeometry x="85" y="400" width="110" height="50" as="geometry" />
        </mxCell>
        <mxCell id="z0TNYz0LtkRiTJH0bDVH-84" value="Delete Order" style="" vertex="1" parent="4">
          <mxGeometry x="85" y="470" width="110" height="50" as="geometry" />
        </mxCell>
        <mxCell id="z0TNYz0LtkRiTJH0bDVH-41" style="edgeStyle=orthogonalEdgeStyle;rounded=0;orthogonalLoop=1;jettySize=auto;html=1;entryX=0;entryY=0.5;entryDx=0;entryDy=0;" edge="1" parent="1" source="7" target="15">
          <mxGeometry relative="1" as="geometry" />
        </mxCell>
        <mxCell id="z0TNYz0LtkRiTJH0bDVH-45" style="edgeStyle=orthogonalEdgeStyle;rounded=0;orthogonalLoop=1;jettySize=auto;html=1;entryX=0;entryY=0.5;entryDx=0;entryDy=0;" edge="1" parent="1" source="15" target="z0TNYz0LtkRiTJH0bDVH-44">
          <mxGeometry relative="1" as="geometry" />
        </mxCell>
        <mxCell id="z0TNYz0LtkRiTJH0bDVH-47" style="edgeStyle=orthogonalEdgeStyle;rounded=0;orthogonalLoop=1;jettySize=auto;html=1;entryX=0.75;entryY=1;entryDx=0;entryDy=0;exitX=0.5;exitY=1;exitDx=0;exitDy=0;" edge="1" parent="1" source="z0TNYz0LtkRiTJH0bDVH-44" target="15">
          <mxGeometry relative="1" as="geometry" />
        </mxCell>
        <mxCell id="z0TNYz0LtkRiTJH0bDVH-56" style="edgeStyle=orthogonalEdgeStyle;rounded=0;orthogonalLoop=1;jettySize=auto;html=1;entryX=0;entryY=0.5;entryDx=0;entryDy=0;" edge="1" parent="1" source="z0TNYz0LtkRiTJH0bDVH-52" target="z0TNYz0LtkRiTJH0bDVH-55">
          <mxGeometry relative="1" as="geometry" />
        </mxCell>
        <mxCell id="z0TNYz0LtkRiTJH0bDVH-57" style="edgeStyle=orthogonalEdgeStyle;rounded=0;orthogonalLoop=1;jettySize=auto;html=1;entryX=0.5;entryY=1;entryDx=0;entryDy=0;exitX=0.5;exitY=1;exitDx=0;exitDy=0;" edge="1" parent="1" source="z0TNYz0LtkRiTJH0bDVH-55" target="z0TNYz0LtkRiTJH0bDVH-52">
          <mxGeometry relative="1" as="geometry" />
        </mxCell>
        <mxCell id="z0TNYz0LtkRiTJH0bDVH-59" style="edgeStyle=orthogonalEdgeStyle;rounded=0;orthogonalLoop=1;jettySize=auto;html=1;entryX=1;entryY=0.5;entryDx=0;entryDy=0;" edge="1" parent="1" source="z0TNYz0LtkRiTJH0bDVH-52" target="z0TNYz0LtkRiTJH0bDVH-58">
          <mxGeometry relative="1" as="geometry" />
        </mxCell>
        <mxCell id="z0TNYz0LtkRiTJH0bDVH-64" style="edgeStyle=orthogonalEdgeStyle;rounded=0;orthogonalLoop=1;jettySize=auto;html=1;entryX=0;entryY=0.5;entryDx=0;entryDy=0;exitX=0.5;exitY=0;exitDx=0;exitDy=0;" edge="1" parent="1" source="z0TNYz0LtkRiTJH0bDVH-58" target="15">
          <mxGeometry relative="1" as="geometry">
            <Array as="points">
              <mxPoint x="280" y="192" />
              <mxPoint x="465" y="192" />
            </Array>
          </mxGeometry>
        </mxCell>
        <mxCell id="z0TNYz0LtkRiTJH0bDVH-66" style="edgeStyle=orthogonalEdgeStyle;rounded=0;orthogonalLoop=1;jettySize=auto;html=1;entryX=0;entryY=0.5;entryDx=0;entryDy=0;" edge="1" parent="1" source="z0TNYz0LtkRiTJH0bDVH-60" target="z0TNYz0LtkRiTJH0bDVH-65">
          <mxGeometry relative="1" as="geometry" />
        </mxCell>
        <mxCell id="z0TNYz0LtkRiTJH0bDVH-68" style="edgeStyle=orthogonalEdgeStyle;rounded=0;orthogonalLoop=1;jettySize=auto;html=1;entryX=0;entryY=0.5;entryDx=0;entryDy=0;" edge="1" parent="1" source="z0TNYz0LtkRiTJH0bDVH-65" target="z0TNYz0LtkRiTJH0bDVH-67">
          <mxGeometry relative="1" as="geometry" />
        </mxCell>
        <mxCell id="z0TNYz0LtkRiTJH0bDVH-70" style="edgeStyle=orthogonalEdgeStyle;rounded=0;orthogonalLoop=1;jettySize=auto;html=1;entryX=0.75;entryY=1;entryDx=0;entryDy=0;exitX=0.5;exitY=1;exitDx=0;exitDy=0;" edge="1" parent="1" source="z0TNYz0LtkRiTJH0bDVH-67" target="z0TNYz0LtkRiTJH0bDVH-65">
          <mxGeometry relative="1" as="geometry" />
        </mxCell>
        <mxCell id="z0TNYz0LtkRiTJH0bDVH-73" style="edgeStyle=orthogonalEdgeStyle;rounded=0;orthogonalLoop=1;jettySize=auto;html=1;entryX=1;entryY=0.5;entryDx=0;entryDy=0;exitX=0.5;exitY=1;exitDx=0;exitDy=0;" edge="1" parent="1" source="z0TNYz0LtkRiTJH0bDVH-65" target="z0TNYz0LtkRiTJH0bDVH-72">
          <mxGeometry relative="1" as="geometry" />
        </mxCell>
        <mxCell id="z0TNYz0LtkRiTJH0bDVH-79" style="edgeStyle=orthogonalEdgeStyle;rounded=0;orthogonalLoop=1;jettySize=auto;html=1;entryX=0;entryY=0.5;entryDx=0;entryDy=0;" edge="1" parent="1" source="z0TNYz0LtkRiTJH0bDVH-75" target="z0TNYz0LtkRiTJH0bDVH-78">
          <mxGeometry relative="1" as="geometry" />
        </mxCell>
        <mxCell id="z0TNYz0LtkRiTJH0bDVH-82" style="edgeStyle=orthogonalEdgeStyle;rounded=0;orthogonalLoop=1;jettySize=auto;html=1;entryX=0;entryY=0.5;entryDx=0;entryDy=0;exitX=0.5;exitY=0;exitDx=0;exitDy=0;" edge="1" parent="1" source="z0TNYz0LtkRiTJH0bDVH-78" target="z0TNYz0LtkRiTJH0bDVH-80">
          <mxGeometry relative="1" as="geometry" />
        </mxCell>
        <mxCell id="z0TNYz0LtkRiTJH0bDVH-83" style="edgeStyle=orthogonalEdgeStyle;rounded=0;orthogonalLoop=1;jettySize=auto;html=1;entryX=0.75;entryY=0;entryDx=0;entryDy=0;exitX=0.5;exitY=1;exitDx=0;exitDy=0;" edge="1" parent="1" source="z0TNYz0LtkRiTJH0bDVH-80" target="z0TNYz0LtkRiTJH0bDVH-78">
          <mxGeometry relative="1" as="geometry">
            <Array as="points">
              <mxPoint x="865" y="480" />
              <mxPoint x="613" y="480" />
            </Array>
          </mxGeometry>
        </mxCell>
        <mxCell id="z0TNYz0LtkRiTJH0bDVH-85" style="edgeStyle=orthogonalEdgeStyle;rounded=0;orthogonalLoop=1;jettySize=auto;html=1;entryX=0;entryY=0.5;entryDx=0;entryDy=0;" edge="1" parent="1" source="z0TNYz0LtkRiTJH0bDVH-78" target="z0TNYz0LtkRiTJH0bDVH-84">
          <mxGeometry relative="1" as="geometry" />
        </mxCell>
        <mxCell id="z0TNYz0LtkRiTJH0bDVH-86" style="edgeStyle=orthogonalEdgeStyle;rounded=0;orthogonalLoop=1;jettySize=auto;html=1;entryX=0.75;entryY=1;entryDx=0;entryDy=0;exitX=0.5;exitY=1;exitDx=0;exitDy=0;" edge="1" parent="1" source="z0TNYz0LtkRiTJH0bDVH-84" target="z0TNYz0LtkRiTJH0bDVH-78">
          <mxGeometry relative="1" as="geometry" />
        </mxCell>
        <mxCell id="z0TNYz0LtkRiTJH0bDVH-88" style="edgeStyle=orthogonalEdgeStyle;rounded=0;orthogonalLoop=1;jettySize=auto;html=1;entryX=1;entryY=0.5;entryDx=0;entryDy=0;exitX=0.5;exitY=1;exitDx=0;exitDy=0;" edge="1" parent="1" source="z0TNYz0LtkRiTJH0bDVH-78" target="z0TNYz0LtkRiTJH0bDVH-87">
          <mxGeometry relative="1" as="geometry" />
        </mxCell>
        <mxCell id="z0TNYz0LtkRiTJH0bDVH-95" value="&lt;font style=&quot;font-size: 8px;&quot;&gt;If refund is unsuccessful, display error message&lt;/font&gt;." style="shape=note;whiteSpace=wrap;html=1;backgroundOutline=1;darkOpacity=0.05;size=12;" vertex="1" parent="1">
          <mxGeometry x="80" y="350" width="74.5" height="80" as="geometry" />
        </mxCell>
        <mxCell id="z0TNYz0LtkRiTJH0bDVH-97" value="&lt;font style=&quot;font-size: 8px;&quot;&gt;If cancel is unsuccessful, display error message&lt;/font&gt;." style="shape=note;whiteSpace=wrap;html=1;backgroundOutline=1;darkOpacity=0.05;size=12;" vertex="1" parent="1">
          <mxGeometry x="80" y="480" width="74.5" height="80" as="geometry" />
        </mxCell>
      </root>
    </mxGraphModel>
  </diagram>
</mxfile>
